<mxfile host="Electron" modified="2023-05-30T18:02:51.315Z" agent="Mozilla/5.0 (X11; Linux x86_64) AppleWebKit/537.36 (KHTML, like Gecko) draw.io/21.2.8 Chrome/112.0.5615.165 Electron/24.2.0 Safari/537.36" etag="LgYiwEkqVM2zvySuVDEL" version="21.2.8" type="device">
  <diagram name="Page-1" id="j5OtZH9g70aiRlE4GzUy">
    <mxGraphModel dx="989" dy="664" grid="1" gridSize="10" guides="1" tooltips="1" connect="1" arrows="1" fold="1" page="1" pageScale="1" pageWidth="850" pageHeight="1100" math="0" shadow="0">
      <root>
        <mxCell id="0" />
        <mxCell id="1" parent="0" />
        <mxCell id="rK8Se2GNoLq5rUaKF2DZ-7" value="" style="edgeStyle=orthogonalEdgeStyle;rounded=0;orthogonalLoop=1;jettySize=auto;html=1;" edge="1" parent="1" source="rK8Se2GNoLq5rUaKF2DZ-5">
          <mxGeometry relative="1" as="geometry">
            <mxPoint x="405" y="740" as="targetPoint" />
          </mxGeometry>
        </mxCell>
        <mxCell id="rK8Se2GNoLq5rUaKF2DZ-37" value="&lt;b&gt;Informations générales&lt;/b&gt;" style="swimlane;fontStyle=0;childLayout=stackLayout;horizontal=1;startSize=30;horizontalStack=0;resizeParent=1;resizeParentMax=0;resizeLast=0;collapsible=1;marginBottom=0;whiteSpace=wrap;html=1;" vertex="1" parent="1">
          <mxGeometry x="260" y="180" width="250" height="210" as="geometry">
            <mxRectangle x="260" y="180" width="170" height="30" as="alternateBounds" />
          </mxGeometry>
        </mxCell>
        <mxCell id="rK8Se2GNoLq5rUaKF2DZ-38" value="Prénom&amp;nbsp;&lt;span style=&quot;text-align: center;&quot;&gt;Nom : Gary Lescargot&lt;/span&gt;" style="text;strokeColor=none;fillColor=none;align=left;verticalAlign=middle;spacingLeft=4;spacingRight=4;overflow=hidden;points=[[0,0.5],[1,0.5]];portConstraint=eastwest;rotatable=0;whiteSpace=wrap;html=1;" vertex="1" parent="rK8Se2GNoLq5rUaKF2DZ-37">
          <mxGeometry y="30" width="250" height="30" as="geometry" />
        </mxCell>
        <mxCell id="rK8Se2GNoLq5rUaKF2DZ-39" value="Sciper : 123456" style="text;strokeColor=none;fillColor=none;align=left;verticalAlign=middle;spacingLeft=4;spacingRight=4;overflow=hidden;points=[[0,0.5],[1,0.5]];portConstraint=eastwest;rotatable=0;whiteSpace=wrap;html=1;" vertex="1" parent="rK8Se2GNoLq5rUaKF2DZ-37">
          <mxGeometry y="60" width="250" height="30" as="geometry" />
        </mxCell>
        <mxCell id="rK8Se2GNoLq5rUaKF2DZ-40" value="Téléphone : +41 12 345 67 89" style="text;strokeColor=none;fillColor=none;align=left;verticalAlign=middle;spacingLeft=4;spacingRight=4;overflow=hidden;points=[[0,0.5],[1,0.5]];portConstraint=eastwest;rotatable=0;whiteSpace=wrap;html=1;" vertex="1" parent="rK8Se2GNoLq5rUaKF2DZ-37">
          <mxGeometry y="90" width="250" height="30" as="geometry" />
        </mxCell>
        <mxCell id="rK8Se2GNoLq5rUaKF2DZ-41" value="Email : gary.lescargot@epfl.ch" style="text;strokeColor=none;fillColor=none;align=left;verticalAlign=middle;spacingLeft=4;spacingRight=4;overflow=hidden;points=[[0,0.5],[1,0.5]];portConstraint=eastwest;rotatable=0;whiteSpace=wrap;html=1;" vertex="1" parent="rK8Se2GNoLq5rUaKF2DZ-37">
          <mxGeometry y="120" width="250" height="30" as="geometry" />
        </mxCell>
        <mxCell id="rK8Se2GNoLq5rUaKF2DZ-42" value="Gaspar : lagrenouille" style="text;strokeColor=none;fillColor=none;align=left;verticalAlign=middle;spacingLeft=4;spacingRight=4;overflow=hidden;points=[[0,0.5],[1,0.5]];portConstraint=eastwest;rotatable=0;whiteSpace=wrap;html=1;" vertex="1" parent="rK8Se2GNoLq5rUaKF2DZ-37">
          <mxGeometry y="150" width="250" height="30" as="geometry" />
        </mxCell>
        <mxCell id="rK8Se2GNoLq5rUaKF2DZ-43" value="Genre : hermaphrodite" style="text;strokeColor=none;fillColor=none;align=left;verticalAlign=middle;spacingLeft=4;spacingRight=4;overflow=hidden;points=[[0,0.5],[1,0.5]];portConstraint=eastwest;rotatable=0;whiteSpace=wrap;html=1;" vertex="1" parent="rK8Se2GNoLq5rUaKF2DZ-37">
          <mxGeometry y="180" width="250" height="30" as="geometry" />
        </mxCell>
      </root>
    </mxGraphModel>
  </diagram>
</mxfile>
